<svg width="826" height="734" viewBox="0 0 826 734" fill="none" xmlns="http://www.w3.org/2000/svg">
<path d="M703.899 457.723C703.899 468.869 694.873 477.894 683.728 477.894H668.822C668.697 504.081 647.398 525.296 621.179 525.296C594.961 525.296 573.673 504.081 573.547 477.894H442.266V477.935C442.266 504.238 420.936 525.578 394.624 525.578C368.311 525.578 347.002 504.238 347.002 477.935V477.894H298.816C282.458 477.894 272.901 459.457 282.333 446.097L288.36 437.553L335.209 370.387C340.045 363.451 340.045 354.217 335.188 347.281L126.421 49.1311C122.64 43.7412 116.477 40.5344 109.896 40.5344H20.8681C14.2769 40.5344 8.11392 37.3171 4.34304 31.9271C1.80475 28.3025 0.655731 24.3123 0.655731 20.4265C0.655731 9.94953 8.96002 0.193298 20.8681 0.193298H250.192C256.773 0.193298 262.935 3.40009 266.706 8.79004L411.013 214.872C419.046 226.331 436.03 226.331 444.053 214.872L588.359 8.79004C592.13 3.40009 598.303 0.193298 604.884 0.193298H639.532C644.4 0.193298 647.262 5.67724 644.463 9.66748L367.089 405.819C357.719 419.189 367.287 437.553 383.604 437.553H683.728C694.873 437.553 703.899 446.588 703.899 457.723Z" fill="#093F51"/>
<path d="M510.247 218.016L591.274 333.733C599.442 345.401 616.719 345.401 624.877 333.733L824.608 48.494C826.927 45.1723 824.556 40.6179 820.514 40.6179H789.02C783.432 40.6179 778.188 43.3338 774.95 47.8986L673.867 190.753C665.667 202.337 648.463 202.296 640.316 190.67L584.86 111.46L510.247 218.016Z" fill="#349999"/>
<path d="M123.98 635.08C123.773 634.667 123.67 634.22 123.67 633.739C123.67 633.223 123.98 632.604 124.599 631.882C125.252 631.125 126.163 630.747 127.333 630.747H138.629C141.312 630.747 143.358 632.38 144.768 635.647L164.731 680.112L184.693 635.647C186.103 632.415 188.149 630.781 190.832 630.747H202.129C203.332 630.747 204.244 631.125 204.863 631.882C205.482 632.604 205.791 633.223 205.791 633.739C205.791 634.22 205.705 634.667 205.533 635.08L175.821 699.456C174.205 702.964 171.746 704.717 168.445 704.717H161.017C157.715 704.717 155.256 702.964 153.64 699.456L123.98 635.08ZM213.219 637.401V635.647C213.219 633.825 213.735 632.38 214.767 631.314C215.833 630.248 217.294 629.715 219.151 629.715H225.547C227.37 629.715 228.814 630.248 229.88 631.314C230.947 632.346 231.48 633.79 231.48 635.647V637.401C231.48 639.224 230.947 640.668 229.88 641.734C228.849 642.8 227.404 643.333 225.547 643.333H219.151C217.329 643.333 215.884 642.8 214.818 641.734C213.752 640.668 213.219 639.224 213.219 637.401ZM213.425 701.571V652.618C213.425 651.69 213.718 650.933 214.302 650.348C214.921 649.764 215.678 649.472 216.572 649.472H228.127C229.055 649.472 229.812 649.781 230.396 650.4C230.981 650.985 231.273 651.724 231.273 652.618V701.571C231.273 702.499 230.964 703.256 230.345 703.84C229.76 704.425 229.021 704.717 228.127 704.717H216.572C215.643 704.717 214.887 704.425 214.302 703.84C213.718 703.256 213.425 702.499 213.425 701.571ZM283.269 661.284L275.326 660.975C270.683 660.975 266.247 663.519 262.017 668.609V701.571C262.017 702.499 261.707 703.256 261.088 703.84C260.504 704.425 259.765 704.717 258.87 704.717H247.316C246.387 704.717 245.631 704.425 245.046 703.84C244.461 703.256 244.169 702.499 244.169 701.571V651.38C244.169 650.452 244.461 649.695 245.046 649.11C245.665 648.491 246.422 648.182 247.316 648.182H258.87C259.799 648.182 260.555 648.491 261.14 649.11C261.725 649.695 262.017 650.452 262.017 651.38V654.63C265.525 652.085 268.895 650.211 272.127 649.007C275.394 647.769 279.659 647.15 284.92 647.15C285.849 647.15 286.605 647.46 287.19 648.079C287.809 648.663 288.118 649.403 288.118 650.297V658.138C288.118 659.066 287.809 659.823 287.19 660.407C286.605 660.992 285.849 661.284 284.92 661.284H283.269ZM322.473 693.524L329.54 692.905H331.448C332.377 692.905 333.133 693.197 333.718 693.782C334.337 694.366 334.646 695.123 334.646 696.051V701.571C334.646 702.327 334.337 703.015 333.718 703.634C333.133 704.219 332.377 704.58 331.448 704.717C327.941 705.405 323.367 705.749 317.727 705.749C302.94 705.749 295.546 698.012 295.546 682.537V633.945C295.546 633.016 295.839 632.26 296.423 631.675C297.042 631.056 297.799 630.747 298.693 630.747H310.247C311.142 630.747 311.881 631.056 312.466 631.675C313.085 632.26 313.394 633.016 313.394 633.945V651.174H327.786C328.68 651.174 329.419 651.466 330.004 652.051C330.623 652.635 330.932 653.392 330.932 654.32V660.459C330.932 661.387 330.623 662.144 330.004 662.728C329.419 663.313 328.68 663.605 327.786 663.605H313.394V682.537C313.394 686.044 314.219 688.761 315.87 690.687C317.521 692.578 319.722 693.524 322.473 693.524ZM342.59 680.937V651.38C342.59 650.452 342.883 649.695 343.467 649.11C344.086 648.491 344.843 648.182 345.737 648.182H357.292C358.186 648.182 358.925 648.491 359.51 649.11C360.129 649.695 360.438 650.452 360.438 651.38V680.937C360.438 689.191 363.705 693.317 370.239 693.317C374.538 693.317 379.163 690.841 384.115 685.889V651.38C384.115 650.452 384.407 649.695 384.992 649.11C385.611 648.491 386.367 648.182 387.262 648.182H398.765C399.693 648.182 400.45 648.491 401.034 649.11C401.653 649.695 401.963 650.452 401.963 651.38V701.571C401.963 702.465 401.653 703.221 401.034 703.84C400.45 704.425 399.693 704.717 398.765 704.717H387.262C386.367 704.717 385.611 704.425 384.992 703.84C384.407 703.221 384.115 702.465 384.115 701.571V698.269C378.2 703.256 371.89 705.749 365.184 705.749C358.512 705.749 353.079 703.72 348.883 699.662C344.688 695.57 342.59 689.328 342.59 680.937ZM418.315 701.003C413.775 697.84 411.506 693.369 411.506 687.592C411.506 681.814 413.775 677.378 418.315 674.283C422.889 671.188 428.769 669.641 435.956 669.641H453.03C453.03 665.617 452.188 662.814 450.503 661.233C448.818 659.651 445.86 658.86 441.631 658.86C437.435 658.86 434.478 659.909 432.758 662.006C431.073 664.07 428.993 665.101 426.517 665.101H418.831C417.902 665.101 417.128 664.809 416.509 664.224C415.925 663.605 415.632 662.849 415.632 661.955C415.632 652.085 425.003 647.15 443.745 647.15C451.93 647.15 458.498 648.99 463.45 652.67C468.402 656.315 470.878 661.972 470.878 669.641V701.571C470.878 702.499 470.586 703.256 470.001 703.84C469.417 704.425 468.66 704.717 467.732 704.717H457.776C456.848 704.717 456.091 704.425 455.506 703.84C454.922 703.221 454.63 702.465 454.63 701.571V699.972C449.196 703.858 442.92 705.783 435.802 705.749C428.717 705.749 422.889 704.167 418.315 701.003ZM437.194 681.35C434.787 681.35 432.879 681.935 431.469 683.104C430.093 684.273 429.405 685.786 429.405 687.643C429.405 689.5 430.127 691.031 431.572 692.234C433.016 693.438 435.062 694.04 437.71 694.04C443.006 694.04 448.113 692.492 453.03 689.397V681.35H437.194ZM483.619 701.571V633.945C483.619 633.016 483.912 632.26 484.496 631.675C485.115 631.056 485.872 630.747 486.766 630.747H498.321C499.215 630.747 499.954 631.056 500.539 631.675C501.158 632.26 501.467 633.016 501.467 633.945V701.571C501.467 702.465 501.158 703.221 500.539 703.84C499.954 704.425 499.215 704.717 498.321 704.717H486.766C485.872 704.717 485.115 704.425 484.496 703.84C483.912 703.221 483.619 702.465 483.619 701.571Z" fill="#093F51"/>
<path d="M509.205 635.08C508.998 634.667 508.895 634.22 508.895 633.739C508.895 633.223 509.205 632.604 509.824 631.882C510.477 631.125 511.389 630.747 512.558 630.747H523.855C526.537 630.747 528.583 632.38 529.993 635.647L549.956 680.112L569.919 635.647C571.328 632.415 573.375 630.781 576.057 630.747H587.354C588.557 630.747 589.469 631.125 590.088 631.882C590.707 632.604 591.016 633.223 591.016 633.739C591.016 634.22 590.93 634.667 590.758 635.08L561.046 699.456C559.43 702.964 556.971 704.717 553.67 704.717H546.242C542.94 704.717 540.482 702.964 538.865 699.456L509.205 635.08ZM599.579 698.218C594.283 693.197 591.635 685.975 591.635 676.553C591.635 667.096 594.3 659.84 599.631 654.785C604.961 649.695 612.354 647.15 621.811 647.15C631.268 647.15 638.645 649.626 643.941 654.578C649.237 659.496 651.885 666.563 651.885 675.779V678.719C651.885 679.648 651.575 680.422 650.956 681.041C650.371 681.625 649.615 681.918 648.686 681.918H609.844C610.188 686.147 611.392 689.225 613.455 691.151C615.553 693.077 618.888 694.04 623.462 694.04C628.036 694.04 631.165 693.008 632.85 690.945C634.535 688.881 636.616 687.832 639.092 687.798H646.778C647.706 687.798 648.463 688.108 649.048 688.727C649.667 689.311 649.976 690.068 649.976 690.996C649.976 700.866 640.571 705.783 621.76 705.749C612.269 705.749 604.875 703.239 599.579 698.218ZM609.741 671.033H633.727C633.383 662.918 629.394 658.86 621.76 658.86C614.16 658.86 610.154 662.918 609.741 671.033ZM661.376 701.571V651.38C661.376 650.452 661.668 649.695 662.253 649.11C662.872 648.491 663.628 648.182 664.523 648.182H676.077C676.971 648.182 677.711 648.491 678.295 649.11C678.914 649.695 679.224 650.452 679.224 651.38V654.63C685.139 649.643 691.432 647.15 698.103 647.15C704.809 647.15 710.26 649.196 714.455 653.289C718.651 657.347 720.749 663.571 720.749 671.962V701.571C720.749 702.465 720.439 703.221 719.82 703.84C719.235 704.425 718.479 704.717 717.55 704.717H706.047C705.153 704.717 704.397 704.425 703.778 703.84C703.193 703.221 702.901 702.465 702.901 701.571V671.962C702.901 663.743 699.617 659.633 693.048 659.633C688.75 659.633 684.142 662.092 679.224 667.01V701.571C679.224 702.465 678.914 703.221 678.295 703.84C677.711 704.425 676.971 704.717 676.077 704.717H664.523C663.628 704.717 662.872 704.425 662.253 703.84C661.668 703.221 661.376 702.465 661.376 701.571ZM760.416 693.524L767.483 692.905H769.392C770.32 692.905 771.077 693.197 771.661 693.782C772.28 694.366 772.59 695.123 772.59 696.051V701.571C772.59 702.327 772.28 703.015 771.661 703.634C771.077 704.219 770.32 704.58 769.392 704.717C765.884 705.405 761.31 705.749 755.671 705.749C740.883 705.749 733.49 698.012 733.49 682.537V633.945C733.49 633.016 733.782 632.26 734.367 631.675C734.986 631.056 735.742 630.747 736.636 630.747H748.191C749.085 630.747 749.824 631.056 750.409 631.675C751.028 632.26 751.338 633.016 751.338 633.945V651.174H765.729C766.623 651.174 767.363 651.466 767.947 652.051C768.566 652.635 768.876 653.392 768.876 654.32V660.459C768.876 661.387 768.566 662.144 767.947 662.728C767.363 663.313 766.623 663.605 765.729 663.605H751.338V682.537C751.338 686.044 752.163 688.761 753.814 690.687C755.464 692.578 757.665 693.524 760.416 693.524Z" fill="#349999"/>
</svg>
